<svg width="32" height="34" viewBox="0 0 32 34" fill="none" xmlns="http://www.w3.org/2000/svg">
<path fill-rule="evenodd" clip-rule="evenodd" d="M16.0005 0.875C9.58024 0.875 4.37555 6.07969 4.37555 12.5V13.5562C4.37555 14.6015 4.06611 15.6235 3.48624 16.4933L1.76333 19.0777C-0.23631 22.0772 1.29025 26.1542 4.76814 27.1027C5.90156 27.4118 7.04455 27.6733 8.19416 27.8871L8.197 27.8948C9.3505 30.9726 12.4335 33.125 16.0005 33.125C19.5674 33.125 22.6504 30.9726 23.8039 27.8948L23.8067 27.8872C24.9564 27.6733 26.0995 27.4118 27.233 27.1027C30.7108 26.1542 32.2374 22.0772 30.2378 19.0777L28.5149 16.4933C27.935 15.6235 27.6255 14.6015 27.6255 13.5562V12.5C27.6255 6.07969 22.4209 0.875 16.0005 0.875ZM21.0652 28.3055C17.7007 28.7074 14.3002 28.7074 10.9357 28.3054C12.0022 29.8377 13.857 30.875 16.0005 30.875C18.1439 30.875 19.9987 29.8377 21.0652 28.3055ZM6.62555 12.5C6.62555 7.32233 10.8229 3.125 16.0005 3.125C21.1782 3.125 25.3755 7.32233 25.3755 12.5V13.5562C25.3755 15.0457 25.8165 16.502 26.6427 17.7414L28.3657 20.3258C29.5134 22.0474 28.6372 24.3876 26.6409 24.932C19.6746 26.8319 12.3265 26.8319 5.36015 24.932C3.36391 24.3876 2.48769 22.0474 3.63545 20.3258L5.35835 17.7414C6.18463 16.502 6.62555 15.0457 6.62555 13.5562V12.5Z" fill="white"/>
</svg>
